<?xml version="1.0" encoding="UTF-8"?>
<svg id="Layer_2" data-name="Layer 2" xmlns="http://www.w3.org/2000/svg" xmlns:xlink="http://www.w3.org/1999/xlink" viewBox="0 0 626.1 239.81">
  <defs>
    <style>
      .cls-1 {
        fill: url(#linear-gradient-2);
      }

      .cls-2 {
        fill: #fff;
      }

      .cls-3 {
        fill: url(#linear-gradient-14);
      }

      .cls-4 {
        fill: url(#linear-gradient-6);
      }

      .cls-5 {
        fill: url(#linear-gradient-11);
      }

      .cls-6 {
        fill: url(#linear-gradient-10);
      }

      .cls-7 {
        fill: #6d6e71;
      }

      .cls-8 {
        fill: url(#linear-gradient-5);
      }

      .cls-9 {
        fill: url(#linear-gradient-7);
      }

      .cls-10 {
        fill: url(#linear-gradient-9);
      }

      .cls-11 {
        fill: url(#linear-gradient-3);
      }

      .cls-12 {
        fill: url(#linear-gradient);
      }

      .cls-13 {
        fill: url(#linear-gradient-4);
      }

      .cls-14 {
        fill: url(#linear-gradient-8);
      }

      .cls-15 {
        fill: url(#linear-gradient-12);
      }

      .cls-16 {
        fill: url(#linear-gradient-13);
      }
    </style>
    <linearGradient id="linear-gradient" x1="33.12" y1="177.95" x2="106.55" y2="8.61" gradientTransform="translate(432.53)" gradientUnits="userSpaceOnUse">
      <stop offset="0" stop-color="#bcbec0"/>
      <stop offset="1" stop-color="#6d6e71"/>
    </linearGradient>
    <linearGradient id="linear-gradient-2" x1="30.6" y1="176.86" x2="104.03" y2="7.52" xlink:href="#linear-gradient"/>
    <linearGradient id="linear-gradient-3" x1="96.61" y1="205.48" x2="170.04" y2="36.14" xlink:href="#linear-gradient"/>
    <linearGradient id="linear-gradient-4" x1="78.58" y1="197.66" x2="152.01" y2="28.32" xlink:href="#linear-gradient"/>
    <linearGradient id="linear-gradient-5" x1="7.08" y1="166.66" x2="80.51" y2="-2.68" xlink:href="#linear-gradient"/>
    <linearGradient id="linear-gradient-6" x1="-31.26" y1="150.03" x2="42.17" y2="-19.31" xlink:href="#linear-gradient"/>
    <linearGradient id="linear-gradient-7" x1="75.95" y1="196.52" x2="149.38" y2="27.18" xlink:href="#linear-gradient"/>
    <linearGradient id="linear-gradient-8" x1="72.99" y1="195.24" x2="146.42" y2="25.9" xlink:href="#linear-gradient"/>
    <linearGradient id="linear-gradient-9" x1="48.71" y1="184.71" x2="122.14" y2="15.37" xlink:href="#linear-gradient"/>
    <linearGradient id="linear-gradient-10" x1="101.68" y1="207.68" x2="175.11" y2="38.34" xlink:href="#linear-gradient"/>
    <linearGradient id="linear-gradient-11" x1="90.08" y1="202.65" x2="163.51" y2="33.31" xlink:href="#linear-gradient"/>
    <linearGradient id="linear-gradient-12" x1="51.96" y1="186.12" x2="125.39" y2="16.78" xlink:href="#linear-gradient"/>
    <linearGradient id="linear-gradient-13" x1="68.51" y1="193.29" x2="141.94" y2="23.95" xlink:href="#linear-gradient"/>
    <linearGradient id="linear-gradient-14" x1="60" y1="189.6" x2="133.43" y2="20.26" xlink:href="#linear-gradient"/>
  </defs>
  <g id="Layer_1-2" data-name="Layer 1">
    <g>
      <g>
        <g>
          <path class="cls-12" d="m523.64,47.81c1.99,0,3.61-1.62,3.61-3.6,0-1.99-1.62-3.6-3.61-3.6-1.99,0-3.6,1.62-3.6,3.6,0,1.99,1.62,3.6,3.6,3.6Z"/>
          <path class="cls-1" d="m509.57,73.35c1.99,0,3.6-1.62,3.6-3.6,0-1.99-1.62-3.61-3.6-3.61-1.99,0-3.6,1.62-3.6,3.61,0,1.99,1.62,3.6,3.6,3.6Z"/>
          <path class="cls-11" d="m573.64,106.46c1.99,0,3.6-1.62,3.6-3.61,0-1.99-1.62-3.6-3.6-3.6-1.99,0-3.61,1.62-3.61,3.6s1.62,3.61,3.61,3.61Z"/>
          <path class="cls-13" d="m564.98,77.03c1.99,0,3.6-1.62,3.6-3.61,0-1.99-1.62-3.6-3.6-3.6-1.99,0-3.6,1.62-3.6,3.6s1.62,3.61,3.6,3.61Z"/>
          <path class="cls-8" d="m494.21,44.35c1.99,0,3.61-1.62,3.61-3.61,0-1.99-1.62-3.6-3.61-3.6-1.99,0-3.6,1.62-3.6,3.6,0,1.99,1.62,3.61,3.6,3.61Z"/>
          <path class="cls-4" d="m453.73,32.66c1.99,0,3.61-1.62,3.61-3.6,0-1.99-1.62-3.6-3.61-3.6s-3.6,1.62-3.6,3.6c0,1.99,1.62,3.6,3.6,3.6Z"/>
          <path class="cls-9" d="m519.53,174.64c1.99,0,3.61-1.62,3.61-3.6,0-1.99-1.62-3.6-3.61-3.6-1.99,0-3.6,1.62-3.6,3.6s1.62,3.6,3.6,3.6Z"/>
          <path class="cls-14" d="m539.66,120.1c1.99,0,3.61-1.62,3.61-3.6s-1.62-3.61-3.61-3.61-3.6,1.62-3.6,3.61c0,1.99,1.62,3.6,3.6,3.6Z"/>
          <path class="cls-10" d="m499.18,146.93c1.99,0,3.61-1.62,3.61-3.6s-1.62-3.6-3.61-3.6c-1.99,0-3.6,1.62-3.6,3.6,0,1.99,1.62,3.6,3.6,3.6Z"/>
          <path class="cls-6" d="m561.73,147.8c1.99,0,3.6-1.62,3.6-3.6,0-1.99-1.62-3.6-3.6-3.6s-3.61,1.62-3.61,3.6,1.62,3.6,3.61,3.6Z"/>
          <path class="cls-5" d="m542.04,161.44c1.99,0,3.61-1.62,3.61-3.6s-1.62-3.61-3.61-3.61-3.6,1.62-3.6,3.61c0,1.99,1.62,3.6,3.6,3.6Z"/>
          <path class="cls-15" d="m538.14,65.99c1.99,0,3.6-1.62,3.6-3.61,0-1.99-1.62-3.6-3.6-3.6-1.99,0-3.6,1.62-3.6,3.6,0,1.99,1.62,3.61,3.6,3.61Z"/>
          <path class="cls-16" d="m509.11,182.12c-.02-.25-.02-.42-.02-.42-1.9-.09-3.66-.28-5.48-.43-.13,0-.32-.01-.57-.02,1.48.19,2.99.37,4.56.56.53.06,1,.22,1.51.31Z"/>
          <path class="cls-3" d="m625.14,164.95c-3.56-6.26-10.12-18.67-16.04-34.64,0,0-3.11-3.11,3.46-15.75,0,0,4.85-7.61,2.42-18.34,0,0-3.01-24.87-18.53-49.55-.21-.35-.43-.7-.67-1.08-.16-.25-.32-.51-.48-.76-6.26-9.76-21-28.63-46.11-38.49-3.25-1.32-6.6-2.54-10.18-3.57,0,0-1.92-.48-5.32-1.03v.09c-7.51-1.48-15.71-2.17-24.68-1.68,0,0-15.14-.71-34.62,5.51-.66.2-1.32.42-1.99.64-.63.21-1.24.41-1.88.64-.84.29-1.67.54-2.51.86l.07.09c-1.15.44-2.28.84-3.45,1.33l-.04-.05c-1.41.61-3.29,1.48-5.48,2.58-4.33,2.1-12.55,6.14-17.43,11.3-7.07,7.46-7.84,12.87-3.5,18.94l.09.13,9.16-9.16c-.71-1.14-1.14-2.47-1.14-3.91,0-4.1,3.33-7.43,7.43-7.43,4.1,0,7.44,3.33,7.44,7.43,0,4.1-3.34,7.43-7.44,7.43-1.27,0-2.44-.35-3.49-.91l-9.53,9.53c1.18,1.3,2.52,2.58,4.03,3.85.88.74,1.81,1.46,2.81,2.19.73.53,1.49,1.05,2.28,1.57l13.36-13.89h23.86c.85-3.17,3.72-5.52,7.15-5.52,4.63,0,8.29,4.26,7.26,9.07-.57,2.67-2.71,4.89-5.35,5.56-4.24,1.06-8.05-1.54-9.06-5.28h-22.23s-11.64,12.1-11.64,12.1c.03.02.05.03.08.05,0,0,5.93,3.66,9.92,10.68l3.96-3.72h26.73s16.88-19.05,16.88-19.05h5.59c.8-3.95,4.75-6.78,9.11-5.73,2.69.65,4.87,2.91,5.44,5.62,1,4.79-2.65,9.03-7.27,9.03-3.27,0-6.03-2.14-7.02-5.09h-4.13s-16.88,19.05-16.88,19.05h-26.94s-3.75,3.52-3.75,3.52c1.18,3.03,1.89,6.52,1.76,10.48l30.53.13,6.07-6.07c-.71-1.14-1.14-2.47-1.14-3.91,0-4.1,3.33-7.44,7.43-7.44,4.1,0,7.43,3.34,7.43,7.44,0,4.1-3.33,7.43-7.43,7.43-1.27,0-2.44-.35-3.49-.91l-7.3,7.3-32.51-.14c-.52,3.09-1.52,6.4-3.26,9.97-1.72,3.51-2.89,6.64-3.62,9.5h37.35s34.99-36.83,34.99-36.83c-.63-1.09-1.01-2.34-1.01-3.68,0-4.1,3.33-7.43,7.43-7.43,4.1,0,7.43,3.33,7.43,7.43,0,4.1-3.33,7.44-7.43,7.44-1.36,0-2.62-.39-3.72-1.04l-3.2,3.37h26.46c.7-4.04,4.65-6.98,9.06-5.96,2.72.63,4.94,2.9,5.51,5.64,1,4.79-2.65,9.03-7.27,9.03-3.19,0-5.9-2.04-6.95-4.87h-30.45s-16.51,17.38-16.51,17.38h34.78l6.93,8.22h13.55c.7-4.04,4.65-6.98,9.07-5.96,2.72.63,4.94,2.9,5.51,5.64,1,4.79-2.65,9.03-7.27,9.03-3.19,0-5.9-2.04-6.95-4.87h-15.69l-6.93-8.22h-36.64s-9.05,9.52-9.05,9.52h-39.74c-.29,2.35-.21,4.51.16,6.56h28.08s9.67,9.52,9.67,9.52h34.15l2.49-2.73c-.59-1.07-.96-2.27-.96-3.57,0-4.1,3.33-7.44,7.43-7.44,4.1,0,7.44,3.34,7.44,7.44,0,4.1-3.34,7.43-7.44,7.43-1.4,0-2.7-.41-3.82-1.09l-3.45,3.79h-31.96s15.88,15.65,15.88,15.65h38.27c.85-3.17,3.72-5.52,7.15-5.52,4.1,0,7.43,3.33,7.43,7.43,0,4.1-3.33,7.43-7.43,7.43-3.43,0-6.3-2.35-7.15-5.52h-21.73s5.1,5.52,5.1,5.52c1.17-.78,2.58-1.24,4.09-1.24,4.1,0,7.44,3.34,7.44,7.44,0,4.1-3.34,7.43-7.44,7.43-4.1,0-7.43-3.33-7.43-7.43,0-1.19.31-2.3.81-3.3l-7.77-8.42h-12.9s-29.44-29-29.44-29h-25.41c1.4,3.56,3.76,6.87,6.86,10.38,1.83,2.07,3.39,3.91,4.7,5.71h2.31l10.82,8.66h7.3c.8-3.95,4.75-6.78,9.11-5.73,2.69.65,4.87,2.91,5.44,5.62,1,4.79-2.65,9.03-7.27,9.03-3.27,0-6.03-2.14-7.02-5.09h-8.91l-8.49-6.79c1.46,3.6,1.91,7.67,1.32,13.35h27.71s11.75,12.54,11.75,12.54c1.15-.73,2.51-1.17,3.97-1.17,4.1,0,7.44,3.33,7.44,7.43,0,4.1-3.34,7.43-7.44,7.43-4.1,0-7.43-3.33-7.43-7.43,0-1.24.33-2.39.87-3.42l-10.83-11.55h-26.56c-.17,1.04-.36,2.12-.58,3.26-3.14,16.03,8.32,19.42,28.03,21.92.25.01.44.02.57.02,1.82.15,3.59.34,5.48.43,0,0,0,.17.02.42,17.95,3.29,25.76,26.07,24.91,41.71,12.14,8.65,30.16,15.37,56.99,15.98,1.94.04,3.85-.8,5.01-2.34,2.24-2.98,4.81-9.14,2.18-20.63,0,0-1.73-5.19,5.19-8.31,0,0,5.71-2.08,1.21-11.59,0,0,6.06,0,7.61-5.54,0,0-4.67-5.36-4.33-12.63,0,0,8.5-.28,14.68-3.99,3.38-2.03,4.51-6.4,2.56-9.83Z"/>
        </g>
        <path class="cls-7" d="m509.11,182.12c.21,3.18,2.5,25.74,24.91,41.71.85-15.64-6.96-38.42-24.91-41.71Z"/>
      </g>
      <g>
        <path class="cls-2" d="m174.12,63.57c6.73,0,11.58,1.74,14.53,5.2,2.96,3.47,3.96,8.56,3.01,15.29l-4.27,30.39c-1.92,13.66-9.68,20.49-23.27,20.49h-29.06l10-71.38h29.07Zm-11.54,58.74c6.19,0,9.73-3.13,10.61-9.38l3.84-27.32c.88-6.26-1.78-9.39-7.98-9.39h-11.36l-6.45,46.09h11.33Z"/>
        <path class="cls-2" d="m217.2,122.82h5.75l-1.73,12.13h-10.81c-5.03,0-8.53-1.14-10.5-3.41-1.97-2.28-2.59-5.86-1.84-10.76l5.8-47.31h15.76l-7.09,43.97c-.27,1.97-.06,3.35.66,4.17.71.81,2.04,1.22,3.99,1.22Zm4.97-65.06l-1.48,9.18h-16.02l1.12-9.18h16.37Z"/>
        <path class="cls-2" d="m244.99,131.28h-3.26c-4.97,0-8.46-1.19-10.47-3.57-2-2.38-2.67-6.05-1.99-11.01l4.02-28.65c.75-5.03,2.45-8.72,5.1-11.07,2.66-2.35,6.46-3.52,11.43-3.52h15.29c4.96,0,8.45,1.18,10.45,3.52,2,2.35,2.63,6.04,1.89,11.07l-5.96,43.14c-1.03,7.13-3.46,12.38-7.29,15.74-3.84,3.36-9.32,5.05-16.47,5.05h-19.27l1.74-12.13h17.13c3.13,0,5.49-.68,7.09-2.04,1.6-1.36,2.63-3.64,3.11-6.83l1.05-7.46c-1.02,2.69-2.6,4.66-4.75,5.9-2.15,1.24-5.09,1.87-8.83,1.87Zm8.49-12.14c3.85,0,6.02-1.88,6.5-5.63l3.12-22.21c.27-1.97.02-3.41-.76-4.33-.77-.92-2.14-1.38-4.09-1.38h-4.85c-3.84,0-5.99,1.91-6.46,5.73l-3.21,22.12c-.48,3.73,1.15,5.63,4.87,5.7h4.87Z"/>
        <path class="cls-2" d="m303.97,122.82h5.75l-1.73,12.13h-10.81c-5.03,0-8.53-1.14-10.5-3.41s-2.58-5.86-1.83-10.76l5.8-47.31h15.76l-7.09,43.97c-.27,1.97-.06,3.35.66,4.17.71.81,2.04,1.22,3.99,1.22Zm4.97-65.06l-1.48,9.18h-16.02l1.13-9.18h16.37Z"/>
        <path class="cls-2" d="m329.78,134.95c-5.13,0-8.72-1.17-10.77-3.52s-2.7-6.03-1.95-11.06l8.99-63.93h14l-2.39,17.03h18.46l-1.74,12.14h-18.42l-4.43,31.52c-.27,1.97-.02,3.41.76,4.33.78.92,2.2,1.37,4.23,1.37h12.64l-1.63,12.13h-17.75Z"/>
        <path class="cls-2" d="m391.13,98.55l1.05-7.23c.27-1.98.02-3.42-.76-4.34-.79-.92-2.16-1.38-4.13-1.38h-22.74l1.63-12.14h28.04c4.96,0,8.44,1.18,10.44,3.52s2.63,6.04,1.89,11.07l-4.54,32.32c-.75,5.03-2.42,8.72-5.03,11.06-2.61,2.35-6.39,3.52-11.35,3.52h-18.05c-4.48,0-7.64-1.08-9.48-3.26-1.83-2.18-2.41-5.54-1.73-10.1l1.32-9.69c1.29-8.91,6.26-13.36,14.89-13.36h18.55Zm-1.63,11.32h-12.88c-1.7,0-2.95.37-3.77,1.12s-1.36,1.97-1.63,3.67l-.41,3.37c-.48,3.19.85,4.79,3.98,4.79h7.14c3.87,0,6.05-1.9,6.52-5.71l1.05-7.24Z"/>
        <path class="cls-2" d="m431.13,122.82h5.75l-1.63,12.13h-10.81c-5.03,0-8.53-1.14-10.5-3.41-1.97-2.28-2.59-5.86-1.84-10.76l8.94-64.34h14.11l-8.57,60.99c-.27,1.97-.07,3.35.6,4.17.67.81,1.99,1.22,3.94,1.22Z"/>
      </g>
      <g>
        <path class="cls-2" d="m51.43,149.97l-1.84,12.64h-17.54l-8.32,58.74h-14.42l8.32-58.74H0l1.83-12.64h49.6Z"/>
        <path class="cls-2" d="m88.49,159.86l-1.74,12.14h-11.83c-3.87,0-6.05,1.9-6.52,5.7l-6.03,43.65h-14l6.59-46.91c.68-5.03,2.34-8.71,4.99-11.06s6.45-3.52,11.41-3.52h17.13Z"/>
        <path class="cls-2" d="m122.84,184.95l1.05-7.23c.27-1.98.02-3.42-.76-4.34-.79-.91-2.16-1.37-4.13-1.37h-22.74l1.63-12.14h28.04c4.96,0,8.44,1.18,10.44,3.52s2.63,6.03,1.89,11.06l-4.54,32.32c-.75,5.03-2.42,8.72-5.03,11.06-2.61,2.35-6.39,3.52-11.35,3.52h-18.05c-4.48,0-7.64-1.08-9.48-3.26-1.83-2.18-2.41-5.54-1.73-10.1l1.32-9.69c1.29-8.91,6.26-13.36,14.89-13.36h18.55Zm-1.63,11.32h-12.88c-1.7,0-2.95.37-3.77,1.12s-1.36,1.97-1.63,3.67l-.41,3.36c-.48,3.2.85,4.79,3.98,4.79h7.14c3.87,0,6.05-1.9,6.52-5.71l1.05-7.24Z"/>
        <path class="cls-2" d="m140.65,221.35l6.59-46.91c.68-5.03,2.35-8.71,5-11.06,2.66-2.35,6.47-3.52,11.43-3.52h15.1c4.97,0,8.47,1.17,10.51,3.52s2.69,6.04,1.94,11.06l-6.49,46.91h-14l5.93-43.65c.34-1.97.13-3.41-.61-4.33-.75-.91-2.14-1.37-4.17-1.37h-4.68c-3.87,0-6.04,1.9-6.51,5.7l-6.03,43.65h-14Z"/>
        <path class="cls-2" d="m240.79,172h-21.32c-3.13,0-4.93,1.6-5.41,4.79l-.51,3.47c-.41,3.13.95,4.69,4.08,4.69l11.34.02c8.7,0,12.41,4.46,11.11,13.38l-1.4,9.65c-.68,4.56-2.23,7.92-4.65,10.09-2.42,2.17-5.84,3.26-10.27,3.26h-29.88l1.63-12.13h24.27c3.13,0,4.93-1.6,5.41-4.79l.4-2.86c.55-3.53-.78-5.3-3.98-5.3h-11.21c-4.42,0-7.55-1.08-9.39-3.26-1.83-2.17-2.44-5.54-1.83-10.09l1.43-9.69c1.16-8.91,6.08-13.36,14.79-13.36h27.05l-1.64,12.14Z"/>
        <path class="cls-2" d="m260.64,221.35c-4.99,0-8.51-1.17-10.56-3.52-2.05-2.35-2.7-6.03-1.95-11.06l4.54-32.31c.75-5.04,2.46-8.72,5.13-11.07s6.49-3.52,11.47-3.52h25.29l-1.63,12.14h-20.19c-1.97,0-3.47.46-4.48,1.38-1.02.92-1.7,2.37-2.04,4.35l-3.63,25.79c-.27,1.97-.02,3.41.76,4.32.79.92,2.16,1.37,4.13,1.37h20.19l-1.74,12.13h-25.3Z"/>
        <path class="cls-2" d="m345.11,182.91c-1.16,8.91-6.08,13.36-14.79,13.36h-18.56l-1.05,7.25c-.27,1.97-.02,3.41.76,4.32.79.92,2.16,1.37,4.13,1.37h22.74l-1.63,12.13h-27.95c-4.99,0-8.51-1.17-10.56-3.52-2.05-2.35-2.7-6.03-1.95-11.06l4.54-32.31c.75-5.04,2.46-8.72,5.12-11.07s6.48-3.52,11.45-3.52h18.05c4.42,0,7.53,1.09,9.33,3.26,1.8,2.17,2.4,5.54,1.78,10.09l-1.43,9.69Zm-17-10.91h-7.14c-3.87,0-6.05,1.91-6.52,5.73l-1.04,7.22h12.87c1.7,0,2.97-.36,3.82-1.07.85-.71,1.38-1.92,1.58-3.62l.51-3.47c.27-1.69.08-2.92-.56-3.67s-1.82-1.12-3.52-1.12Z"/>
        <path class="cls-2" d="m347.34,221.35l6.59-46.91c.68-5.03,2.35-8.71,5-11.06,2.66-2.35,6.47-3.52,11.43-3.52h15.1c4.97,0,8.47,1.17,10.51,3.52,2.04,2.35,2.69,6.04,1.94,11.06l-6.49,46.91h-14l5.93-43.65c.34-1.97.13-3.41-.61-4.33-.75-.91-2.14-1.37-4.17-1.37h-4.68c-3.87,0-6.04,1.9-6.51,5.7l-6.03,43.65h-14Z"/>
        <path class="cls-2" d="m457.8,142.83l-8.98,63.95c-.75,5.03-2.44,8.71-5.06,11.05-2.63,2.35-6.43,3.51-11.41,3.51h-15.34c-4.97,0-8.49-1.17-10.53-3.52-2.04-2.35-2.69-6.03-1.94-11.06l4.54-32.31c.75-5.04,2.45-8.72,5.1-11.07,2.66-2.35,6.46-3.52,11.43-3.52h3.26c3.74,0,6.5.65,8.26,1.93,1.77,1.29,2.82,3.28,3.16,5.99l3.5-24.94h14Zm-22.53,60.67l3.63-25.84c.34-1.96.12-3.39-.66-4.3-.78-.91-2.19-1.36-4.23-1.36h-4.88c-1.97,0-3.46.46-4.48,1.38s-1.7,2.37-2.04,4.35l-3.63,25.79c-.27,1.97-.02,3.41.76,4.32.78.92,2.15,1.37,4.12,1.37h4.88c1.96,0,3.46-.45,4.47-1.37s1.69-2.36,2.04-4.33Z"/>
      </g>
    </g>
  </g>
</svg>