<svg width="288" height="276" viewBox="0 0 288 276" fill="none" xmlns="http://www.w3.org/2000/svg">
<path d="M43.4653 138C42.0393 140.981 40.7728 144.031 39.6708 147.136C39.531 147.543 39.4963 147.976 39.5698 148.398C39.6433 148.82 39.8227 149.219 40.0926 149.56C40.3624 149.9 40.7146 150.173 41.1185 150.353C41.5224 150.533 41.966 150.616 42.4107 150.594C48.1732 150.107 55.4133 149.933 60.3506 146.668C61.674 145.61 62.7389 144.285 63.4698 142.787C64.2007 141.289 64.5796 139.655 64.5796 138C64.5796 136.346 64.2007 134.712 63.4698 133.214C62.7389 131.716 61.674 130.391 60.3506 129.333C55.4133 126.068 48.1732 125.894 42.4107 125.406C41.9658 125.385 41.5222 125.469 41.1184 125.649C40.7145 125.83 40.3626 126.103 40.0928 126.443C39.8231 126.784 39.6436 127.183 39.57 127.606C39.4965 128.028 39.5311 128.461 39.6708 128.868C40.7735 131.972 42.04 135.02 43.4653 138ZM72.7737 69.9686C69.5734 71.106 66.4361 72.4009 63.3743 73.8482C62.9758 74.0404 62.6321 74.3231 62.3731 74.6719C62.1141 75.0207 61.9476 75.4249 61.8879 75.8497C61.8282 76.2744 61.8772 76.7067 62.0307 77.1091C62.1842 77.5114 62.4375 77.8717 62.7686 78.1586C67.1982 81.7277 72.4453 86.5316 78.3405 87.5801C80.054 87.7313 81.781 87.518 83.3992 86.9553C85.0173 86.3927 86.4869 85.4945 87.7035 84.3245C88.9202 83.1546 89.8542 81.7415 90.4392 80.1855C91.0242 78.6295 91.2459 76.9688 91.0886 75.3213C90.0014 69.656 84.9999 64.6086 81.2913 60.3484C80.9928 60.0302 80.6181 59.7869 80.1996 59.6394C79.7812 59.492 79.3317 59.4449 78.8901 59.5023C78.4485 59.5597 78.028 59.7197 77.6653 59.9687C77.3026 60.2176 77.0085 60.5478 76.8084 60.9307C75.3033 63.8748 73.9566 66.8914 72.7737 69.9686ZM143.526 41.7875C140.427 40.4172 137.257 39.1998 134.028 38.1399C133.605 38.0059 133.154 37.9729 132.715 38.0437C132.276 38.1145 131.861 38.287 131.507 38.5463C131.153 38.8057 130.869 39.144 130.681 39.5322C130.493 39.9204 130.406 40.3468 130.428 40.7745C130.936 46.3153 131.117 53.2801 134.512 58.0243C135.612 59.2967 136.99 60.3206 138.547 61.0233C140.105 61.726 141.805 62.0902 143.526 62.0902C145.247 62.0902 146.946 61.726 148.504 61.0233C150.062 60.3206 151.44 59.2967 152.54 58.0243C155.935 53.2801 156.117 46.3153 156.625 40.7745C156.647 40.3468 156.561 39.9204 156.373 39.532C156.186 39.1436 155.903 38.805 155.548 38.5455C155.194 38.2861 154.78 38.1135 154.34 38.0428C153.901 37.9722 153.451 38.0055 153.028 38.1399C149.798 39.2008 146.627 40.42 143.526 41.7927V41.7875ZM214.281 69.9686C213.097 66.8914 211.749 63.8747 210.243 60.9307C210.043 60.5478 209.75 60.2175 209.387 59.9686C209.025 59.7197 208.605 59.5596 208.163 59.5022C207.722 59.4448 207.272 59.4919 206.854 59.6393C206.436 59.7868 206.062 60.0302 205.763 60.3484C202.048 64.6075 197.053 69.6528 195.965 75.3213C195.807 76.9688 196.028 78.6297 196.613 80.1858C197.197 81.7419 198.131 83.1552 199.348 84.3253C200.564 85.4954 202.034 86.3936 203.652 86.9562C205.27 87.5187 206.998 87.7317 208.711 87.5801C214.603 86.5347 219.852 81.7256 224.286 78.1586C224.616 77.8712 224.869 77.5108 225.022 77.1086C225.174 76.7064 225.223 76.2745 225.164 75.8501C225.104 75.4257 224.938 75.0217 224.679 74.6729C224.421 74.3241 224.078 74.0411 223.68 73.8482C220.618 72.402 217.481 71.1071 214.281 69.9686ZM243.585 138C245.012 135.02 246.279 131.972 247.38 128.867C247.519 128.46 247.554 128.027 247.48 127.605C247.407 127.182 247.227 126.783 246.958 126.442C246.688 126.102 246.336 125.829 245.932 125.648C245.528 125.468 245.085 125.384 244.64 125.405C238.877 125.894 231.637 126.067 226.7 129.332C225.377 130.39 224.311 131.715 223.581 133.213C222.85 134.71 222.471 136.345 222.471 137.999C222.471 139.654 222.85 141.288 223.581 142.786C224.311 144.284 225.377 145.609 226.7 146.667C231.636 149.932 238.877 150.105 244.64 150.593C245.085 150.615 245.528 150.533 245.932 150.352C246.336 150.172 246.689 149.9 246.958 149.559C247.228 149.219 247.408 148.82 247.481 148.397C247.555 147.975 247.52 147.542 247.38 147.135C246.28 144.029 245.012 140.98 243.585 138ZM214.281 206.032C217.481 204.895 220.619 203.6 223.68 202.153C224.078 201.96 224.421 201.678 224.679 201.329C224.938 200.981 225.104 200.577 225.164 200.153C225.223 199.728 225.175 199.297 225.022 198.895C224.869 198.493 224.616 198.133 224.286 197.845C219.853 194.273 214.603 189.469 208.711 188.424C206.998 188.272 205.27 188.484 203.652 189.046C202.034 189.608 200.564 190.506 199.347 191.676C198.131 192.846 197.197 194.259 196.612 195.815C196.028 197.371 195.807 199.032 195.965 200.68C197.052 206.345 202.048 211.392 205.763 215.652C206.062 215.97 206.436 216.213 206.854 216.361C207.272 216.508 207.722 216.555 208.163 216.498C208.605 216.44 209.025 216.28 209.387 216.031C209.75 215.782 210.043 215.452 210.243 215.069C211.749 212.126 213.097 209.109 214.281 206.032ZM143.526 234.213C146.626 235.586 149.797 236.803 153.028 237.861C153.451 237.995 153.901 238.029 154.34 237.958C154.78 237.887 155.194 237.715 155.548 237.455C155.903 237.196 156.186 236.857 156.373 236.469C156.561 236.081 156.647 235.654 156.625 235.226C156.117 229.686 155.935 222.724 152.54 217.977C151.44 216.704 150.062 215.68 148.504 214.978C146.946 214.275 145.247 213.911 143.526 213.911C141.805 213.911 140.105 214.275 138.547 214.978C136.99 215.68 135.612 216.704 134.512 217.977C131.116 222.724 130.936 229.686 130.428 235.226C130.406 235.654 130.493 236.081 130.681 236.469C130.869 236.857 131.153 237.195 131.507 237.455C131.861 237.714 132.276 237.886 132.715 237.957C133.154 238.028 133.605 237.995 134.028 237.861C137.257 236.802 140.427 235.584 143.526 234.212V234.213ZM72.7737 206.032C73.9562 209.11 75.3026 212.126 76.8074 215.07C77.0074 215.453 77.3015 215.783 77.6642 216.032C78.027 216.281 78.4474 216.441 78.889 216.499C79.3306 216.556 79.7802 216.509 80.1986 216.361C80.617 216.214 80.9917 215.971 81.2902 215.653C85.0011 211.393 89.997 206.348 91.0876 200.681C91.2452 199.033 91.0236 197.373 90.4387 195.817C89.8537 194.261 88.9196 192.848 87.7029 191.678C86.4861 190.508 85.0164 189.61 83.3981 189.048C81.7799 188.486 80.0528 188.273 78.3394 188.425C72.4475 189.47 67.1971 194.274 62.7676 197.847C62.4364 198.133 62.183 198.493 62.0295 198.895C61.876 199.297 61.827 199.729 61.8867 200.154C61.9464 200.579 62.113 200.983 62.3721 201.331C62.6311 201.68 62.9748 201.962 63.3732 202.154C66.4348 203.602 69.5725 204.897 72.7737 206.032ZM58.7697 138.001C60.6496 142.533 52.3352 144.119 46.676 144.749C47.6299 142.392 48.8248 140.131 50.2433 138.001C48.8255 135.871 47.6306 133.612 46.676 131.256C52.3352 131.882 60.6507 133.471 58.7697 138V138.001ZM83.5919 80.3729C81.5924 84.8568 74.5447 80.3258 70.0826 76.9229C72.4899 75.9036 74.9969 75.1174 77.5663 74.5758C78.1288 72.1056 78.9461 69.6954 80.0061 67.3811C83.543 71.6726 88.2563 78.4492 83.5919 80.3697V80.3729ZM143.525 56.5053C138.815 58.3139 137.161 50.3173 136.51 44.8768C138.96 45.7945 141.31 46.9431 143.525 48.3059C145.741 46.9423 148.092 45.7937 150.543 44.8768C149.889 50.3163 148.239 58.3108 143.526 56.5043L143.525 56.5053ZM203.458 80.3729C198.798 78.4503 203.507 71.6737 207.046 67.3832C208.106 69.6976 208.924 72.1077 209.487 74.5779C212.057 75.1191 214.564 75.9053 216.971 76.925C212.506 80.3237 205.458 84.8557 203.46 80.3697L203.458 80.3729ZM228.284 138.001C226.4 133.472 234.716 131.883 240.374 131.256C239.421 133.613 238.226 135.872 236.807 138.001C238.227 140.131 239.422 142.391 240.374 144.749C234.717 144.118 226.401 142.532 228.285 138L228.284 138.001ZM203.458 195.629C205.458 191.145 212.505 195.676 216.969 199.079C214.562 200.099 212.055 200.885 209.485 201.426C208.922 203.896 208.105 206.307 207.044 208.621C203.509 204.327 198.799 197.551 203.46 195.628L203.458 195.629ZM143.525 219.5C148.239 217.688 149.888 225.685 150.543 231.125C148.091 230.21 145.74 229.061 143.525 227.696C141.311 229.06 138.961 230.209 136.51 231.125C137.163 225.687 138.816 217.688 143.526 219.499L143.525 219.5ZM83.5919 195.629C88.2552 197.552 83.5429 204.328 80.0039 208.619C78.9433 206.305 78.1261 203.894 77.5642 201.424C74.9948 200.883 72.4878 200.096 70.0805 199.077C74.5448 195.676 81.5924 191.144 83.5919 195.628V195.629Z" fill="#F7941D"/>
<path d="M71.6931 138C71.4944 141.137 72.1724 144.269 73.6567 147.069C74.8065 149.418 76.5587 151.446 78.7485 152.964C80.9383 154.482 83.4938 155.44 86.1745 155.746C84.9263 156.257 83.665 156.741 82.3777 157.165C65.35 162.773 47.7766 159.011 32.5451 150.556C32.0536 150.283 31.5764 149.995 31.0926 149.719C26.2337 146.573 22.0117 142.601 18.6335 137.999C22.0109 133.397 26.2331 129.426 31.0926 126.282C31.5764 125.999 32.0536 125.712 32.5451 125.439C47.7766 116.983 65.3511 113.222 82.3777 118.83C83.665 119.254 84.9263 119.738 86.1745 120.251C83.4937 120.558 80.938 121.515 78.7481 123.033C76.5582 124.551 74.8061 126.58 73.6567 128.929C72.1723 131.73 71.4943 134.862 71.6931 138ZM92.735 89.163C90.2852 91.2448 88.46 93.9193 87.4487 96.9087C86.5346 99.3511 86.2819 101.977 86.7147 104.539C87.1474 107.101 88.2512 109.516 89.9222 111.554C88.6642 111.07 87.4161 110.554 86.194 109.978C70.0264 102.365 60.366 87.76 55.8147 71.4228C55.6668 70.9001 55.5418 70.368 55.407 69.8421C54.2831 64.3138 54.2172 58.6347 55.2124 53.0836C60.9859 52.1264 66.8925 52.1898 72.6423 53.2707C73.186 53.4004 73.7383 53.5206 74.2852 53.6638C91.2759 58.0401 106.468 67.3278 114.386 82.8736C114.983 84.0487 115.519 85.2488 116.026 86.4584C113.905 84.8517 111.394 83.7903 108.728 83.3742C106.063 82.9582 103.331 83.2011 100.791 84.08C97.6809 85.051 94.899 86.8064 92.735 89.163ZM143.525 68.9305C140.262 68.7392 137.005 69.3907 134.092 70.8175C131.65 71.9227 129.54 73.6074 127.961 75.7131C126.382 77.8187 125.387 80.2761 125.068 82.8537C124.534 81.6536 124.031 80.4409 123.589 79.202C117.757 62.8303 121.669 45.9327 130.463 31.286C130.747 30.8145 131.045 30.3545 131.339 29.8893C134.61 25.2168 138.74 21.1571 143.525 17.9095C148.311 21.1583 152.442 25.2177 155.715 29.8893C156.004 30.3545 156.305 30.8135 156.585 31.286C165.377 45.9317 169.29 62.8303 163.458 79.202C163.017 80.4398 162.512 81.6525 161.983 82.8537C161.664 80.2762 160.668 77.8191 159.089 75.7135C157.511 73.608 155.401 71.9231 152.959 70.8175C150.045 69.3911 146.789 68.7397 143.525 68.9305ZM194.319 89.163C192.153 86.807 189.371 85.0519 186.26 84.08C183.72 83.201 180.989 82.9581 178.324 83.3742C175.659 83.7903 173.148 84.8517 171.028 86.4584C171.532 85.2488 172.069 84.0487 172.669 82.8736C180.586 67.3278 195.778 58.0401 212.766 53.6638C213.309 53.5216 213.862 53.4014 214.409 53.2707C220.158 52.1898 226.064 52.1264 231.836 53.0836C232.834 58.6344 232.769 64.3136 231.646 69.8421C231.507 70.3648 231.382 70.897 231.237 71.4228C226.686 87.76 217.023 102.368 200.859 109.978C199.637 110.554 198.389 111.07 197.132 111.554C198.802 109.515 199.904 107.101 200.336 104.539C200.768 101.977 200.515 99.3509 199.601 96.9087C198.592 93.9194 196.768 91.2447 194.319 89.163ZM215.358 138C215.556 134.863 214.881 131.732 213.401 128.931C212.25 126.582 210.497 124.553 208.307 123.035C206.117 121.518 203.561 120.56 200.88 120.254C202.128 119.74 203.389 119.256 204.676 118.832C221.707 113.224 239.281 116.985 254.509 125.441C254.999 125.714 255.477 126.001 255.961 126.284C260.82 129.429 265.043 133.4 268.423 138.001C265.042 142.602 260.82 146.574 255.961 149.722C255.477 150 254.998 150.288 254.509 150.558C239.281 159.013 221.707 162.775 204.676 157.167C203.389 156.743 202.127 156.259 200.88 155.749C203.561 155.442 206.116 154.484 208.307 152.966C210.497 151.448 212.25 149.42 213.401 147.071C214.882 144.269 215.557 141.137 215.358 138ZM194.319 186.841C196.767 184.758 198.591 182.082 199.601 179.092C200.515 176.65 200.768 174.025 200.336 171.462C199.904 168.9 198.801 166.486 197.132 164.447C198.389 164.932 199.633 165.447 200.859 166.024C217.023 173.637 226.686 188.242 231.237 204.579C231.383 205.102 231.508 205.634 231.646 206.16C232.769 211.688 232.834 217.368 231.836 222.918C226.064 223.875 220.158 223.813 214.409 222.734C213.865 222.602 213.311 222.481 212.766 222.339C195.778 217.966 180.583 208.674 172.669 193.133C172.069 191.958 171.532 190.757 171.028 189.548C173.149 191.153 175.66 192.214 178.325 192.63C180.989 193.045 183.72 192.802 186.26 191.923C189.37 190.951 192.153 189.196 194.319 186.841ZM143.525 207.071C146.789 207.262 150.046 206.612 152.961 205.189C155.403 204.082 157.513 202.396 159.091 200.29C160.67 198.184 161.666 195.726 161.985 193.148C162.515 194.349 163.019 195.561 163.46 196.8C169.292 213.175 165.381 230.07 156.587 244.716C156.304 245.188 156.004 245.648 155.717 246.113C152.443 250.785 148.313 254.845 143.528 258.096C138.742 254.846 134.613 250.786 131.342 246.113C131.048 245.648 130.749 245.188 130.465 244.716C121.671 230.07 117.759 213.175 123.592 196.8C124.033 195.562 124.537 194.35 125.07 193.148C125.389 195.726 126.384 198.184 127.963 200.291C129.542 202.397 131.652 204.082 134.095 205.189C137.008 206.612 140.264 207.261 143.525 207.07V207.071ZM92.735 186.841C94.9 189.196 97.6817 190.95 100.791 191.921C103.331 192.8 106.063 193.043 108.728 192.627C111.393 192.212 113.905 191.151 116.026 189.546C115.519 190.755 114.983 191.955 114.386 193.131C106.465 208.673 91.2759 217.964 74.2852 222.337C73.7415 222.479 73.1881 222.6 72.6423 222.732C66.8922 223.811 60.9858 223.873 55.2124 222.916C54.2172 217.365 54.2831 211.686 55.407 206.158C55.5418 205.635 55.6679 205.103 55.8147 204.577C60.366 188.24 70.0264 173.632 86.194 166.022C87.415 165.446 88.6631 164.93 89.9222 164.445C88.2513 166.483 87.1477 168.898 86.7149 171.46C86.2822 174.022 86.5348 176.648 87.4487 179.09C88.4604 182.081 90.2855 184.757 92.735 186.841ZM0 138C10.9314 147.842 22.863 156.609 36.7245 162.346C46.1724 166.348 56.3624 168.476 66.6852 168.604C59.4812 175.713 53.8416 184.145 50.1034 193.397C44.517 206.883 42.5283 221.191 42.0369 235.581C57.0042 235.109 71.8888 233.196 85.908 227.829C95.5306 224.234 104.3 218.81 111.693 211.881C111.829 221.806 114.042 231.603 118.2 240.688C124.169 254.017 133.283 265.49 143.52 276C153.755 265.49 162.873 254.016 168.839 240.688C173 231.604 175.214 221.806 175.348 211.881C182.74 218.809 191.51 224.234 201.132 227.829C215.158 233.196 230.038 235.109 245.003 235.581C244.513 221.191 242.524 206.881 236.941 193.397C233.202 184.146 227.563 175.713 220.359 168.604C230.681 168.476 240.869 166.347 250.315 162.346C264.178 156.608 276.11 147.843 287.04 138C276.11 128.158 264.178 119.391 250.315 113.655C240.868 109.657 230.68 107.529 220.359 107.397C227.563 100.288 233.202 91.8555 236.941 82.6039C242.524 69.1176 244.513 54.8128 245.003 40.4201C230.038 40.8916 215.154 42.8048 201.132 48.1752C191.51 51.7704 182.741 57.193 175.348 64.1193C175.214 54.1939 173 44.3962 168.839 35.3121C162.871 21.9837 153.755 10.5099 143.52 0C133.283 10.5099 124.167 21.9837 118.2 35.3121C114.042 44.3972 111.829 54.1943 111.693 64.1193C104.299 57.1927 95.5297 51.77 85.908 48.1752C71.8877 42.8048 57.0042 40.8916 42.0369 40.4201C42.5272 54.8128 44.517 69.1197 50.1034 82.6039C53.8417 91.8557 59.4813 100.288 66.6852 107.397C56.3627 107.528 46.1734 109.656 36.7245 113.655C22.8684 119.392 10.9357 128.158 0 138ZM107.204 152.463C111.06 148.111 114.509 143.441 117.513 138.507C117.648 138.34 117.782 138.168 117.918 138C117.783 137.833 117.649 137.661 117.513 137.493C114.509 132.559 111.06 127.889 107.204 123.537C113.131 123.081 119.005 122.125 124.758 120.678C124.976 120.65 125.193 120.622 125.418 120.595C125.444 120.386 125.474 120.171 125.504 119.959C127.008 114.428 128.003 108.781 128.478 103.083C133.004 106.79 137.861 110.106 142.992 112.995C143.17 113.125 143.344 113.254 143.519 113.384C143.697 113.254 143.871 113.125 144.046 112.995C149.177 110.107 154.034 106.79 158.56 103.083C159.034 108.782 160.03 114.429 161.537 119.959C161.563 120.168 161.594 120.383 161.623 120.595C161.84 120.62 162.058 120.65 162.281 120.678C168.033 122.124 173.906 123.081 179.833 123.537C175.977 127.889 172.527 132.559 169.524 137.493C169.389 137.661 169.255 137.832 169.119 138C169.255 138.168 169.389 138.339 169.524 138.507C172.527 143.441 175.977 148.111 179.833 152.463C173.906 152.918 168.032 153.876 162.281 155.325C162.063 155.35 161.839 155.378 161.623 155.408C161.594 155.617 161.563 155.826 161.537 156.041C160.03 161.571 159.034 167.218 158.56 172.917C154.034 169.21 149.177 165.893 144.046 163.005C143.871 162.875 143.697 162.746 143.519 162.615C143.345 162.745 143.17 162.874 142.992 163.005C137.861 165.894 133.004 169.21 128.478 172.917C128.005 167.219 127.012 161.571 125.511 156.04C125.48 155.831 125.451 155.616 125.425 155.407C125.207 155.378 124.983 155.349 124.765 155.324C119.013 153.875 113.139 152.918 107.212 152.463H107.204ZM88.1771 138C88.1999 138.565 88.4097 139.108 88.7757 139.551C89.1418 139.994 89.6451 140.312 90.2126 140.461C92.8677 141.154 95.3836 139.84 97.6756 138.627C98.0547 138.428 98.4278 138.219 98.7953 138C98.4264 137.782 98.0532 137.573 97.6756 137.373C95.3836 136.16 92.8677 134.846 90.2126 135.542C89.6461 135.691 89.1436 136.009 88.7785 136.451C88.4134 136.893 88.2045 137.436 88.1826 138H88.1771ZM104.387 175.628C104.819 176.011 105.366 176.253 105.95 176.317C106.534 176.381 107.124 176.265 107.635 175.985C110.027 174.668 110.836 172.03 111.564 169.617C111.683 169.218 111.795 168.817 111.89 168.411C111.472 168.506 111.053 168.614 110.639 168.725C108.127 169.424 105.384 170.207 104.016 172.506C103.725 172.997 103.604 173.565 103.672 174.126C103.74 174.688 103.993 175.214 104.394 175.628H104.387ZM143.52 191.214C144.108 191.192 144.673 190.991 145.133 190.639C145.593 190.287 145.925 189.803 146.079 189.257C146.8 186.705 145.435 184.285 144.172 182.084C143.965 181.721 143.747 181.359 143.52 181.008C143.293 181.359 143.075 181.72 142.868 182.084C141.606 184.285 140.24 186.704 140.964 189.257C141.118 189.804 141.449 190.288 141.91 190.641C142.371 190.993 142.937 191.194 143.525 191.214H143.52ZM182.655 175.628C183.053 175.213 183.303 174.687 183.369 174.126C183.435 173.565 183.314 172.998 183.024 172.508C181.654 170.208 178.911 169.427 176.401 168.727C175.986 168.613 175.567 168.505 175.146 168.413C175.249 168.819 175.356 169.22 175.473 169.62C176.2 172.032 177.014 174.67 179.405 175.987C179.917 176.269 180.509 176.385 181.094 176.321C181.68 176.256 182.228 176.013 182.66 175.628H182.655ZM198.862 138C198.839 137.436 198.63 136.893 198.265 136.452C197.9 136.01 197.397 135.691 196.831 135.543C194.172 134.846 191.656 136.161 189.368 137.374C188.989 137.573 188.613 137.783 188.248 138.001C188.613 138.22 188.989 138.429 189.368 138.628C191.656 139.841 194.172 141.155 196.831 140.462C197.398 140.313 197.902 139.994 198.268 139.552C198.635 139.109 198.844 138.565 198.867 138H198.862ZM182.66 100.373C182.229 99.9898 181.681 99.7486 181.097 99.6849C180.514 99.6212 179.924 99.7382 179.414 100.019C177.022 101.333 176.209 103.971 175.481 106.387C175.362 106.786 175.254 107.188 175.155 107.59C175.576 107.495 175.994 107.387 176.41 107.276C178.919 106.577 181.662 105.794 183.032 103.498C183.323 103.007 183.444 102.439 183.377 101.877C183.31 101.316 183.059 100.789 182.66 100.373ZM143.525 84.7868C142.938 84.8085 142.373 85.0102 141.914 85.3622C141.454 85.7143 141.123 86.1983 140.969 86.7438C140.245 89.2958 141.612 91.716 142.873 93.9198C143.081 94.2836 143.298 94.6422 143.525 94.9966C143.753 94.6422 143.97 94.2846 144.178 93.9198C145.44 91.716 146.806 89.2968 146.085 86.7438C145.93 86.1981 145.599 85.714 145.139 85.3619C144.678 85.0097 144.113 84.8079 143.525 84.7857V84.7868ZM104.393 100.373C103.993 100.788 103.742 101.315 103.676 101.876C103.609 102.438 103.731 103.005 104.023 103.496C105.391 105.796 108.134 106.574 110.645 107.274C111.061 107.388 111.478 107.496 111.897 107.588C111.798 107.185 111.686 106.784 111.571 106.385C110.842 103.969 110.029 101.331 107.641 100.017C107.131 99.7361 106.541 99.6193 105.957 99.6834C105.373 99.7476 104.824 99.9892 104.393 100.373ZM104.751 138C105.526 138.947 106.315 139.886 107.119 140.815C101.267 145.85 89.085 150.524 83.2388 143.821C81.8557 142.173 81.1014 140.118 81.1014 138.001C81.1014 135.883 81.8557 133.828 83.2388 132.18C89.085 125.48 101.267 130.151 107.119 135.189C106.316 136.116 105.526 137.053 104.751 138ZM116.107 164.363C117.352 164.502 118.6 164.629 119.851 164.743C119.416 172.282 114.24 183.874 105.179 183.104C102.988 182.88 100.943 181.941 99.3852 180.443C97.8271 178.945 96.8501 176.979 96.6166 174.873C95.8229 166.158 107.87 161.178 115.711 160.759C115.828 161.965 115.959 163.166 116.107 164.363ZM143.524 175.282C144.509 174.537 145.485 173.778 146.452 173.005C151.689 178.632 156.55 190.346 149.578 195.967C147.864 197.297 145.728 198.022 143.525 198.022C141.322 198.022 139.186 197.297 137.472 195.967C130.502 190.346 135.36 178.632 140.6 173.005C141.566 173.778 142.541 174.537 143.525 175.283L143.524 175.282ZM170.942 164.363C171.087 163.166 171.218 161.966 171.337 160.762C179.179 161.181 191.233 166.159 190.432 174.876C190.2 176.982 189.223 178.949 187.665 180.446C186.108 181.944 184.063 182.883 181.872 183.107C172.809 183.873 167.629 172.286 167.194 164.746C168.449 164.633 169.697 164.506 170.942 164.363ZM182.297 138C181.523 137.053 180.734 136.116 179.928 135.188C185.781 130.15 197.963 125.479 203.809 132.179C205.192 133.827 205.946 135.881 205.946 137.999C205.946 140.117 205.192 142.172 203.809 143.82C197.963 150.523 185.781 145.85 179.928 140.814C180.735 139.883 181.525 138.945 182.299 138H182.297ZM170.942 111.637C169.697 111.498 168.449 111.371 167.197 111.257C167.632 103.718 172.809 92.1258 181.875 92.8963C184.066 93.1198 186.111 94.0588 187.669 95.5567C189.226 97.0545 190.203 99.0206 190.435 101.127C191.232 109.842 179.182 114.822 171.34 115.241C171.224 114.036 171.091 112.834 170.942 111.637ZM143.524 100.718C142.539 101.463 141.564 102.222 140.598 102.995C135.359 97.3677 130.501 85.6545 137.47 80.0331C139.185 78.7033 141.321 77.978 143.524 77.978C145.727 77.978 147.863 78.7033 149.577 80.0331C156.549 85.6545 151.689 97.3677 146.451 102.995C145.484 102.222 144.508 101.463 143.524 100.718ZM116.107 111.637C115.958 112.834 115.826 114.034 115.711 115.237C107.87 114.819 95.8229 109.842 96.6166 101.124C96.8501 99.0175 97.8271 97.0517 99.3852 95.5539C100.943 94.0562 102.988 93.1171 105.179 92.8931C114.239 92.1268 119.416 103.714 119.851 111.254C118.601 111.367 117.352 111.494 116.107 111.637Z" fill="#F7941D"/>
</svg>
